<?xml version="1.0" standalone="no"?>
<!DOCTYPE svg PUBLIC "-//W3C//DTD SVG 20010904//EN"
 "http://www.w3.org/TR/2001/REC-SVG-20010904/DTD/svg10.dtd">
<svg version="1.0" xmlns="http://www.w3.org/2000/svg"
 width="349.000000pt" height="349.000000pt" viewBox="0 0 349.000000 349.000000"
 preserveAspectRatio="xMidYMid meet">
<metadata>
Created by potrace 1.11, written by Peter Selinger 2001-2013
</metadata>
<g transform="translate(0.000000,349.000000) scale(0.100000,-0.100000)"
fill="#000000" stroke="none">
<path d="M0 1745 l0 -1745 1745 0 1745 0 0 1745 0 1745 -1745 0 -1745 0 0
-1745z m1998 1015 c389 -101 672 -384 773 -775 29 -114 33 -347 7 -460 -45
-197 -141 -374 -278 -515 -408 -420 -1075 -424 -1491 -11 -384 383 -410 1001
-59 1420 153 181 406 324 640 360 102 16 311 6 408 -19z"/>
<path d="M1295 2110 c-116 -18 -201 -111 -220 -242 l-6 -48 39 0 c37 0 40 2
46 32 10 50 52 105 96 128 46 23 116 26 163 6 47 -19 96 -79 103 -126 6 -39 8
-40 45 -40 37 0 39 1 39 33 0 84 -54 181 -123 222 -51 30 -123 43 -182 35z"/>
<path d="M2117 2109 c-120 -18 -217 -132 -217 -256 0 -32 2 -33 39 -33 37 0
39 1 45 40 7 47 56 107 103 126 47 20 117 17 163 -6 44 -23 86 -78 96 -128 6
-29 10 -32 46 -32 l39 0 -7 53 c-9 67 -26 108 -66 152 -58 67 -147 98 -241 84z"/>
<path d="M1253 1455 c-54 -38 -33 -106 66 -206 240 -241 619 -242 859 -3 34
35 72 83 83 108 18 42 19 48 4 76 -17 32 -50 46 -89 36 -15 -4 -42 -30 -66
-64 -50 -70 -99 -110 -182 -147 -87 -40 -216 -47 -315 -17 -84 26 -172 87
-214 149 -18 25 -40 54 -51 65 -22 22 -66 23 -95 3z"/>
</g>
</svg>
